<mxfile host="app.diagrams.net" modified="2023-08-04T16:25:55.058Z" agent="Mozilla/5.0 (Windows NT 10.0; Win64; x64) AppleWebKit/537.36 (KHTML, like Gecko) Chrome/115.0.0.0 Safari/537.36" etag="TwPQ_6oTcu9-RwEjTk_X" version="21.6.6" type="device">
  <diagram name="Page-1" id="7HRL7XLmytkVXLuXk7ZP">
    <mxGraphModel dx="968" dy="798" grid="1" gridSize="10" guides="1" tooltips="1" connect="1" arrows="1" fold="1" page="1" pageScale="1" pageWidth="827" pageHeight="1169" math="0" shadow="0">
      <root>
        <mxCell id="0" />
        <mxCell id="1" parent="0" />
        <mxCell id="A8MT7VIbUZhbVd4Xl3lS-4" style="edgeStyle=orthogonalEdgeStyle;rounded=0;orthogonalLoop=1;jettySize=auto;html=1;exitX=1;exitY=0.5;exitDx=0;exitDy=0;entryX=0;entryY=0.5;entryDx=0;entryDy=0;endArrow=none;endFill=0;" edge="1" parent="1" source="A8MT7VIbUZhbVd4Xl3lS-1" target="A8MT7VIbUZhbVd4Xl3lS-3">
          <mxGeometry relative="1" as="geometry" />
        </mxCell>
        <mxCell id="A8MT7VIbUZhbVd4Xl3lS-27" value="0,n" style="edgeLabel;html=1;align=center;verticalAlign=middle;resizable=0;points=[];" vertex="1" connectable="0" parent="A8MT7VIbUZhbVd4Xl3lS-4">
          <mxGeometry x="0.1116" y="-1" relative="1" as="geometry">
            <mxPoint as="offset" />
          </mxGeometry>
        </mxCell>
        <mxCell id="A8MT7VIbUZhbVd4Xl3lS-10" style="edgeStyle=orthogonalEdgeStyle;rounded=0;orthogonalLoop=1;jettySize=auto;html=1;exitX=0.5;exitY=1;exitDx=0;exitDy=0;entryX=0.5;entryY=0;entryDx=0;entryDy=0;endArrow=none;endFill=0;" edge="1" parent="1" source="A8MT7VIbUZhbVd4Xl3lS-1" target="A8MT7VIbUZhbVd4Xl3lS-9">
          <mxGeometry relative="1" as="geometry" />
        </mxCell>
        <mxCell id="A8MT7VIbUZhbVd4Xl3lS-32" value="1,n" style="edgeLabel;html=1;align=center;verticalAlign=middle;resizable=0;points=[];" vertex="1" connectable="0" parent="A8MT7VIbUZhbVd4Xl3lS-10">
          <mxGeometry x="0.1236" relative="1" as="geometry">
            <mxPoint as="offset" />
          </mxGeometry>
        </mxCell>
        <mxCell id="A8MT7VIbUZhbVd4Xl3lS-1" value="Recette" style="swimlane;whiteSpace=wrap;html=1;" vertex="1" parent="1">
          <mxGeometry x="44" y="470" width="200" height="200" as="geometry" />
        </mxCell>
        <mxCell id="A8MT7VIbUZhbVd4Xl3lS-34" value="Id" style="text;html=1;align=left;verticalAlign=middle;resizable=0;points=[];autosize=1;strokeColor=none;fillColor=none;" vertex="1" parent="A8MT7VIbUZhbVd4Xl3lS-1">
          <mxGeometry x="9" y="20" width="30" height="30" as="geometry" />
        </mxCell>
        <mxCell id="A8MT7VIbUZhbVd4Xl3lS-2" value="Catégorie" style="swimlane;whiteSpace=wrap;html=1;startSize=23;" vertex="1" parent="1">
          <mxGeometry x="532" y="505" width="200" height="130" as="geometry" />
        </mxCell>
        <mxCell id="A8MT7VIbUZhbVd4Xl3lS-26" value="Titre" style="text;html=1;align=left;verticalAlign=middle;resizable=0;points=[];autosize=1;strokeColor=none;fillColor=none;" vertex="1" parent="A8MT7VIbUZhbVd4Xl3lS-2">
          <mxGeometry x="20" y="60" width="50" height="30" as="geometry" />
        </mxCell>
        <mxCell id="A8MT7VIbUZhbVd4Xl3lS-36" value="Id" style="text;html=1;align=left;verticalAlign=middle;resizable=0;points=[];autosize=1;strokeColor=none;fillColor=none;" vertex="1" parent="A8MT7VIbUZhbVd4Xl3lS-2">
          <mxGeometry x="20" y="30" width="30" height="30" as="geometry" />
        </mxCell>
        <mxCell id="A8MT7VIbUZhbVd4Xl3lS-5" style="edgeStyle=orthogonalEdgeStyle;rounded=0;orthogonalLoop=1;jettySize=auto;html=1;exitX=1;exitY=0.5;exitDx=0;exitDy=0;entryX=0;entryY=0.5;entryDx=0;entryDy=0;endArrow=none;endFill=0;" edge="1" parent="1" source="A8MT7VIbUZhbVd4Xl3lS-3" target="A8MT7VIbUZhbVd4Xl3lS-2">
          <mxGeometry relative="1" as="geometry" />
        </mxCell>
        <mxCell id="A8MT7VIbUZhbVd4Xl3lS-30" value="0,n" style="edgeLabel;html=1;align=center;verticalAlign=middle;resizable=0;points=[];" vertex="1" connectable="0" parent="A8MT7VIbUZhbVd4Xl3lS-5">
          <mxGeometry x="-0.2033" relative="1" as="geometry">
            <mxPoint as="offset" />
          </mxGeometry>
        </mxCell>
        <mxCell id="A8MT7VIbUZhbVd4Xl3lS-3" value="Appartient" style="swimlane;whiteSpace=wrap;html=1;startSize=23;rounded=1;" vertex="1" parent="1">
          <mxGeometry x="344" y="525" width="123" height="90" as="geometry" />
        </mxCell>
        <mxCell id="A8MT7VIbUZhbVd4Xl3lS-7" value="Ingrédients" style="swimlane;whiteSpace=wrap;html=1;" vertex="1" parent="1">
          <mxGeometry x="44" y="860" width="200" height="110" as="geometry" />
        </mxCell>
        <mxCell id="A8MT7VIbUZhbVd4Xl3lS-11" style="edgeStyle=orthogonalEdgeStyle;rounded=0;orthogonalLoop=1;jettySize=auto;html=1;entryX=0.5;entryY=0;entryDx=0;entryDy=0;endArrow=none;endFill=0;" edge="1" parent="1" source="A8MT7VIbUZhbVd4Xl3lS-9" target="A8MT7VIbUZhbVd4Xl3lS-7">
          <mxGeometry relative="1" as="geometry" />
        </mxCell>
        <mxCell id="A8MT7VIbUZhbVd4Xl3lS-31" value="0,n" style="edgeLabel;html=1;align=center;verticalAlign=middle;resizable=0;points=[];" vertex="1" connectable="0" parent="A8MT7VIbUZhbVd4Xl3lS-11">
          <mxGeometry x="-0.0103" y="1" relative="1" as="geometry">
            <mxPoint x="1" as="offset" />
          </mxGeometry>
        </mxCell>
        <mxCell id="A8MT7VIbUZhbVd4Xl3lS-9" value="Est composée de" style="swimlane;whiteSpace=wrap;html=1;startSize=23;rounded=1;" vertex="1" parent="1">
          <mxGeometry x="83" y="730" width="123" height="80" as="geometry" />
        </mxCell>
        <mxCell id="A8MT7VIbUZhbVd4Xl3lS-24" value="Quantité" style="text;html=1;align=left;verticalAlign=middle;resizable=0;points=[];autosize=1;strokeColor=none;fillColor=none;" vertex="1" parent="A8MT7VIbUZhbVd4Xl3lS-9">
          <mxGeometry x="6" y="25" width="70" height="30" as="geometry" />
        </mxCell>
        <mxCell id="A8MT7VIbUZhbVd4Xl3lS-25" value="Unité" style="text;html=1;align=left;verticalAlign=middle;resizable=0;points=[];autosize=1;strokeColor=none;fillColor=none;" vertex="1" parent="A8MT7VIbUZhbVd4Xl3lS-9">
          <mxGeometry x="6" y="50" width="50" height="30" as="geometry" />
        </mxCell>
        <mxCell id="A8MT7VIbUZhbVd4Xl3lS-12" value="Utilisateur" style="swimlane;whiteSpace=wrap;html=1;" vertex="1" parent="1">
          <mxGeometry x="59" y="80" width="200" height="130" as="geometry" />
        </mxCell>
        <mxCell id="A8MT7VIbUZhbVd4Xl3lS-18" value="Email" style="text;html=1;align=left;verticalAlign=middle;resizable=0;points=[];autosize=1;strokeColor=none;fillColor=none;" vertex="1" parent="A8MT7VIbUZhbVd4Xl3lS-12">
          <mxGeometry x="8" y="70" width="50" height="30" as="geometry" />
        </mxCell>
        <mxCell id="A8MT7VIbUZhbVd4Xl3lS-17" value="Pseudo" style="text;html=1;align=left;verticalAlign=middle;resizable=0;points=[];autosize=1;strokeColor=none;fillColor=none;" vertex="1" parent="A8MT7VIbUZhbVd4Xl3lS-12">
          <mxGeometry x="8" y="50" width="60" height="30" as="geometry" />
        </mxCell>
        <mxCell id="A8MT7VIbUZhbVd4Xl3lS-33" value="Id" style="text;html=1;align=left;verticalAlign=middle;resizable=0;points=[];autosize=1;strokeColor=none;fillColor=none;" vertex="1" parent="A8MT7VIbUZhbVd4Xl3lS-12">
          <mxGeometry x="9" y="30" width="30" height="30" as="geometry" />
        </mxCell>
        <mxCell id="A8MT7VIbUZhbVd4Xl3lS-15" style="edgeStyle=orthogonalEdgeStyle;rounded=0;orthogonalLoop=1;jettySize=auto;html=1;entryX=0.5;entryY=1;entryDx=0;entryDy=0;endArrow=none;endFill=0;" edge="1" parent="1" source="A8MT7VIbUZhbVd4Xl3lS-13" target="A8MT7VIbUZhbVd4Xl3lS-12">
          <mxGeometry relative="1" as="geometry" />
        </mxCell>
        <mxCell id="A8MT7VIbUZhbVd4Xl3lS-28" value="0,n" style="edgeLabel;html=1;align=center;verticalAlign=middle;resizable=0;points=[];" vertex="1" connectable="0" parent="A8MT7VIbUZhbVd4Xl3lS-15">
          <mxGeometry x="-0.132" relative="1" as="geometry">
            <mxPoint as="offset" />
          </mxGeometry>
        </mxCell>
        <mxCell id="A8MT7VIbUZhbVd4Xl3lS-16" style="edgeStyle=orthogonalEdgeStyle;rounded=0;orthogonalLoop=1;jettySize=auto;html=1;exitX=0.5;exitY=1;exitDx=0;exitDy=0;entryX=0.5;entryY=0;entryDx=0;entryDy=0;endArrow=none;endFill=0;" edge="1" parent="1" source="A8MT7VIbUZhbVd4Xl3lS-13" target="A8MT7VIbUZhbVd4Xl3lS-1">
          <mxGeometry relative="1" as="geometry" />
        </mxCell>
        <mxCell id="A8MT7VIbUZhbVd4Xl3lS-29" value="1,1" style="edgeLabel;html=1;align=center;verticalAlign=middle;resizable=0;points=[];" vertex="1" connectable="0" parent="A8MT7VIbUZhbVd4Xl3lS-16">
          <mxGeometry x="-0.1096" relative="1" as="geometry">
            <mxPoint as="offset" />
          </mxGeometry>
        </mxCell>
        <mxCell id="A8MT7VIbUZhbVd4Xl3lS-13" value="créé" style="swimlane;whiteSpace=wrap;html=1;startSize=23;rounded=1;" vertex="1" parent="1">
          <mxGeometry x="93" y="330" width="102" height="90" as="geometry" />
        </mxCell>
        <mxCell id="A8MT7VIbUZhbVd4Xl3lS-19" value="Titre" style="text;html=1;align=left;verticalAlign=middle;resizable=0;points=[];autosize=1;strokeColor=none;fillColor=none;" vertex="1" parent="1">
          <mxGeometry x="50" y="508" width="50" height="30" as="geometry" />
        </mxCell>
        <mxCell id="A8MT7VIbUZhbVd4Xl3lS-20" value="Durée" style="text;html=1;align=left;verticalAlign=middle;resizable=0;points=[];autosize=1;strokeColor=none;fillColor=none;" vertex="1" parent="1">
          <mxGeometry x="50" y="568" width="60" height="30" as="geometry" />
        </mxCell>
        <mxCell id="A8MT7VIbUZhbVd4Xl3lS-21" value="Date création" style="text;html=1;align=left;verticalAlign=middle;resizable=0;points=[];autosize=1;strokeColor=none;fillColor=none;" vertex="1" parent="1">
          <mxGeometry x="50" y="598" width="90" height="30" as="geometry" />
        </mxCell>
        <mxCell id="A8MT7VIbUZhbVd4Xl3lS-22" value="Slug" style="text;html=1;align=left;verticalAlign=middle;resizable=0;points=[];autosize=1;strokeColor=none;fillColor=none;" vertex="1" parent="1">
          <mxGeometry x="50" y="538" width="50" height="30" as="geometry" />
        </mxCell>
        <mxCell id="A8MT7VIbUZhbVd4Xl3lS-23" value="Nom" style="text;html=1;align=left;verticalAlign=middle;resizable=0;points=[];autosize=1;strokeColor=none;fillColor=none;" vertex="1" parent="1">
          <mxGeometry x="59" y="898" width="50" height="30" as="geometry" />
        </mxCell>
        <mxCell id="A8MT7VIbUZhbVd4Xl3lS-35" value="Id" style="text;html=1;align=left;verticalAlign=middle;resizable=0;points=[];autosize=1;strokeColor=none;fillColor=none;" vertex="1" parent="1">
          <mxGeometry x="63" y="880" width="30" height="30" as="geometry" />
        </mxCell>
        <mxCell id="A8MT7VIbUZhbVd4Xl3lS-39" value="users" style="swimlane;whiteSpace=wrap;html=1;" vertex="1" parent="1">
          <mxGeometry x="899" y="338" width="200" height="130" as="geometry" />
        </mxCell>
        <mxCell id="A8MT7VIbUZhbVd4Xl3lS-40" value="email" style="text;html=1;align=left;verticalAlign=middle;resizable=0;points=[];autosize=1;strokeColor=none;fillColor=none;" vertex="1" parent="A8MT7VIbUZhbVd4Xl3lS-39">
          <mxGeometry x="8" y="89" width="50" height="30" as="geometry" />
        </mxCell>
        <mxCell id="A8MT7VIbUZhbVd4Xl3lS-41" value="user_name" style="text;html=1;align=left;verticalAlign=middle;resizable=0;points=[];autosize=1;strokeColor=none;fillColor=none;" vertex="1" parent="A8MT7VIbUZhbVd4Xl3lS-39">
          <mxGeometry x="8" y="60" width="80" height="30" as="geometry" />
        </mxCell>
        <mxCell id="A8MT7VIbUZhbVd4Xl3lS-42" value="id" style="text;html=1;align=left;verticalAlign=middle;resizable=0;points=[];autosize=1;strokeColor=none;fillColor=none;" vertex="1" parent="A8MT7VIbUZhbVd4Xl3lS-39">
          <mxGeometry x="8" y="30" width="30" height="30" as="geometry" />
        </mxCell>
        <mxCell id="A8MT7VIbUZhbVd4Xl3lS-45" value="categories" style="swimlane;whiteSpace=wrap;html=1;startSize=23;" vertex="1" parent="1">
          <mxGeometry x="1380" y="502" width="200" height="130" as="geometry" />
        </mxCell>
        <mxCell id="A8MT7VIbUZhbVd4Xl3lS-46" value="title" style="text;html=1;align=left;verticalAlign=middle;resizable=0;points=[];autosize=1;strokeColor=none;fillColor=none;" vertex="1" parent="A8MT7VIbUZhbVd4Xl3lS-45">
          <mxGeometry x="20" y="60" width="40" height="30" as="geometry" />
        </mxCell>
        <mxCell id="A8MT7VIbUZhbVd4Xl3lS-47" value="id" style="text;html=1;align=left;verticalAlign=middle;resizable=0;points=[];autosize=1;strokeColor=none;fillColor=none;" vertex="1" parent="A8MT7VIbUZhbVd4Xl3lS-45">
          <mxGeometry x="20" y="30" width="30" height="30" as="geometry" />
        </mxCell>
        <mxCell id="A8MT7VIbUZhbVd4Xl3lS-48" value="ingredients" style="swimlane;whiteSpace=wrap;html=1;" vertex="1" parent="1">
          <mxGeometry x="1200" y="721" width="200" height="110" as="geometry" />
        </mxCell>
        <mxCell id="A8MT7VIbUZhbVd4Xl3lS-81" value="name" style="text;html=1;align=center;verticalAlign=middle;resizable=0;points=[];autosize=1;strokeColor=none;fillColor=none;" vertex="1" parent="A8MT7VIbUZhbVd4Xl3lS-48">
          <mxGeometry x="50" y="79" width="50" height="30" as="geometry" />
        </mxCell>
        <mxCell id="A8MT7VIbUZhbVd4Xl3lS-49" value="recipes" style="swimlane;whiteSpace=wrap;html=1;" vertex="1" parent="1">
          <mxGeometry x="900" y="485" width="200" height="200" as="geometry" />
        </mxCell>
        <mxCell id="A8MT7VIbUZhbVd4Xl3lS-50" value="id" style="text;html=1;align=left;verticalAlign=middle;resizable=0;points=[];autosize=1;strokeColor=none;fillColor=none;" vertex="1" parent="A8MT7VIbUZhbVd4Xl3lS-49">
          <mxGeometry x="5" y="20" width="30" height="30" as="geometry" />
        </mxCell>
        <mxCell id="A8MT7VIbUZhbVd4Xl3lS-55" value="date" style="text;html=1;align=left;verticalAlign=middle;resizable=0;points=[];autosize=1;strokeColor=none;fillColor=none;" vertex="1" parent="A8MT7VIbUZhbVd4Xl3lS-49">
          <mxGeometry x="5" y="136" width="50" height="30" as="geometry" />
        </mxCell>
        <mxCell id="A8MT7VIbUZhbVd4Xl3lS-56" value="user_Id" style="text;html=1;align=left;verticalAlign=middle;resizable=0;points=[];autosize=1;strokeColor=none;fillColor=none;" vertex="1" parent="A8MT7VIbUZhbVd4Xl3lS-49">
          <mxGeometry x="5" y="165" width="60" height="30" as="geometry" />
        </mxCell>
        <mxCell id="A8MT7VIbUZhbVd4Xl3lS-53" value="title" style="text;html=1;align=left;verticalAlign=middle;resizable=0;points=[];autosize=1;strokeColor=none;fillColor=none;" vertex="1" parent="1">
          <mxGeometry x="905" y="534" width="40" height="30" as="geometry" />
        </mxCell>
        <mxCell id="A8MT7VIbUZhbVd4Xl3lS-54" value="slug" style="text;html=1;align=left;verticalAlign=middle;resizable=0;points=[];autosize=1;strokeColor=none;fillColor=none;" vertex="1" parent="1">
          <mxGeometry x="905" y="563" width="50" height="30" as="geometry" />
        </mxCell>
        <mxCell id="A8MT7VIbUZhbVd4Xl3lS-57" value="duration" style="text;html=1;align=left;verticalAlign=middle;resizable=0;points=[];autosize=1;strokeColor=none;fillColor=none;" vertex="1" parent="1">
          <mxGeometry x="905" y="592" width="70" height="30" as="geometry" />
        </mxCell>
        <mxCell id="A8MT7VIbUZhbVd4Xl3lS-58" style="edgeStyle=orthogonalEdgeStyle;rounded=0;orthogonalLoop=1;jettySize=auto;html=1;" edge="1" parent="1" source="A8MT7VIbUZhbVd4Xl3lS-56" target="A8MT7VIbUZhbVd4Xl3lS-42">
          <mxGeometry relative="1" as="geometry">
            <mxPoint x="905" y="598" as="sourcePoint" />
            <mxPoint x="894.45" y="58.010000000000105" as="targetPoint" />
            <Array as="points">
              <mxPoint x="850" y="670" />
              <mxPoint x="850" y="383" />
            </Array>
          </mxGeometry>
        </mxCell>
        <mxCell id="A8MT7VIbUZhbVd4Xl3lS-59" value="categories_recipes" style="swimlane;whiteSpace=wrap;html=1;" vertex="1" parent="1">
          <mxGeometry x="1141" y="485" width="200" height="105" as="geometry" />
        </mxCell>
        <mxCell id="A8MT7VIbUZhbVd4Xl3lS-60" value="recipe_id" style="text;html=1;align=left;verticalAlign=middle;resizable=0;points=[];autosize=1;strokeColor=none;fillColor=none;" vertex="1" parent="A8MT7VIbUZhbVd4Xl3lS-59">
          <mxGeometry x="5" y="20" width="70" height="30" as="geometry" />
        </mxCell>
        <mxCell id="A8MT7VIbUZhbVd4Xl3lS-63" value="category_id" style="text;html=1;align=center;verticalAlign=middle;resizable=0;points=[];autosize=1;strokeColor=none;fillColor=none;" vertex="1" parent="A8MT7VIbUZhbVd4Xl3lS-59">
          <mxGeometry x="-8" y="48" width="90" height="30" as="geometry" />
        </mxCell>
        <mxCell id="A8MT7VIbUZhbVd4Xl3lS-64" style="edgeStyle=orthogonalEdgeStyle;rounded=0;orthogonalLoop=1;jettySize=auto;html=1;entryX=-0.015;entryY=0.511;entryDx=0;entryDy=0;entryPerimeter=0;" edge="1" parent="1" source="A8MT7VIbUZhbVd4Xl3lS-63" target="A8MT7VIbUZhbVd4Xl3lS-47">
          <mxGeometry relative="1" as="geometry" />
        </mxCell>
        <mxCell id="A8MT7VIbUZhbVd4Xl3lS-65" style="edgeStyle=orthogonalEdgeStyle;rounded=0;orthogonalLoop=1;jettySize=auto;html=1;" edge="1" parent="1" source="A8MT7VIbUZhbVd4Xl3lS-60" target="A8MT7VIbUZhbVd4Xl3lS-50">
          <mxGeometry relative="1" as="geometry" />
        </mxCell>
        <mxCell id="A8MT7VIbUZhbVd4Xl3lS-66" value="ingredients_recipes" style="swimlane;whiteSpace=wrap;html=1;" vertex="1" parent="1">
          <mxGeometry x="900" y="716.5" width="200" height="133.5" as="geometry" />
        </mxCell>
        <mxCell id="A8MT7VIbUZhbVd4Xl3lS-67" value="recipe_id" style="text;html=1;align=left;verticalAlign=middle;resizable=0;points=[];autosize=1;strokeColor=none;fillColor=none;" vertex="1" parent="A8MT7VIbUZhbVd4Xl3lS-66">
          <mxGeometry x="11" y="20" width="70" height="30" as="geometry" />
        </mxCell>
        <mxCell id="A8MT7VIbUZhbVd4Xl3lS-68" value="ingredient_id" style="text;html=1;align=left;verticalAlign=middle;resizable=0;points=[];autosize=1;strokeColor=none;fillColor=none;" vertex="1" parent="A8MT7VIbUZhbVd4Xl3lS-66">
          <mxGeometry x="11" y="47.5" width="90" height="30" as="geometry" />
        </mxCell>
        <mxCell id="A8MT7VIbUZhbVd4Xl3lS-74" value="quantity" style="text;html=1;align=left;verticalAlign=middle;resizable=0;points=[];autosize=1;strokeColor=none;fillColor=none;" vertex="1" parent="A8MT7VIbUZhbVd4Xl3lS-66">
          <mxGeometry x="11" y="75.5" width="70" height="30" as="geometry" />
        </mxCell>
        <mxCell id="A8MT7VIbUZhbVd4Xl3lS-75" value="unit" style="text;html=1;align=left;verticalAlign=middle;resizable=0;points=[];autosize=1;strokeColor=none;fillColor=none;" vertex="1" parent="A8MT7VIbUZhbVd4Xl3lS-66">
          <mxGeometry x="11" y="103.5" width="40" height="30" as="geometry" />
        </mxCell>
        <mxCell id="A8MT7VIbUZhbVd4Xl3lS-73" style="edgeStyle=orthogonalEdgeStyle;rounded=0;orthogonalLoop=1;jettySize=auto;html=1;" edge="1" parent="1" source="A8MT7VIbUZhbVd4Xl3lS-67" target="A8MT7VIbUZhbVd4Xl3lS-50">
          <mxGeometry relative="1" as="geometry">
            <Array as="points">
              <mxPoint x="860" y="753" />
              <mxPoint x="860" y="520" />
            </Array>
          </mxGeometry>
        </mxCell>
        <mxCell id="A8MT7VIbUZhbVd4Xl3lS-80" style="edgeStyle=orthogonalEdgeStyle;rounded=0;orthogonalLoop=1;jettySize=auto;html=1;" edge="1" parent="1" source="A8MT7VIbUZhbVd4Xl3lS-79" target="A8MT7VIbUZhbVd4Xl3lS-68">
          <mxGeometry relative="1" as="geometry" />
        </mxCell>
        <mxCell id="A8MT7VIbUZhbVd4Xl3lS-79" value="id" style="text;html=1;align=center;verticalAlign=middle;resizable=0;points=[];autosize=1;strokeColor=none;fillColor=none;" vertex="1" parent="1">
          <mxGeometry x="1255" y="764" width="30" height="30" as="geometry" />
        </mxCell>
      </root>
    </mxGraphModel>
  </diagram>
</mxfile>
